PathFileType	4	(X/Y/Z)	D:\TRACE\spot_10-12-23\spot_arm_body_motion_1_4-v60.trc
DataRate	CameraRate	NumFrames	NumMarkers	Units	OrigDataRate	OrigDataStartFrame	OrigNumFrames
100.00	100.00	      17	9	mm	100.00	1751	      7000
Frame#	Time	front left toe			Front right toe			aft left toe			aft right toe			Arm			FL body			FR body			AL Body			AR Body			
		X1	Y1	Z1	X2	Y2	Z2	X3	Y3	Z3	X4	Y4	Z4	X5	Y5	Z5	X6	Y6	Z6	X7	Y7	Z7	X8	Y8	Z8	X9	Y9	Z9	

1751	17.500	-26.69909	-1.38240	-530.15851	440.54459	-1.20141	-623.85907	81.64959	137.92389	119.87857	521.09198	20.82364	39.90079	145.04507	745.93884	-767.50635	102.94267	580.49988	-604.57654	254.09584	585.21301	-636.27509	282.52719	561.56982	258.90204	421.47894	561.06500	232.56001	
1752	17.510	-25.92448	-1.25529	-530.03308	441.55688	-1.21061	-623.53381	93.06516	137.34920	117.77393	522.14722	20.58287	39.96109	145.94986	745.18384	-766.96997	105.66201	579.93677	-604.30457	257.22302	584.58691	-635.95398	286.38068	561.01392	259.29785	425.54858	560.32501	232.78587	
1753	17.520	-25.04425	-1.44893	-529.89258	442.69989	-1.31441	-623.58618	104.81133	135.33205	115.44936	523.41339	20.58134	40.05968	146.99937	744.29688	-766.54285	108.54096	579.16785	-603.67303	259.68036	583.61249	-635.51532	289.72388	560.31122	259.65863	429.13956	559.61139	233.03777	
1754	17.530	-23.87399	-1.66935	-529.82025	443.39481	-1.79446	-623.83667	115.96647	131.08853	113.38026	524.25177	20.32543	40.07992	148.12010	743.87390	-765.92395	111.27060	578.27112	-602.92542	262.55042	582.91095	-635.02435	293.48346	559.77484	260.13239	432.36267	558.88019	233.01169	
1755	17.540	-22.53071	-1.53591	-529.79047	444.52356	-1.57954	-623.36401	126.81162	124.44893	111.29514	525.40533	20.18363	40.12441	148.97377	743.44080	-765.68695	114.12902	577.70679	-602.11511	265.10233	582.30151	-634.42548	297.33218	559.47845	260.75781	436.60086	558.64899	234.06349	
1756	17.550	-21.75454	-1.08510	-529.65485	445.52710	-1.66026	-623.35272	136.27292	116.40681	108.77647	526.58533	20.15111	40.21960	150.28102	743.02039	-765.24622	117.01916	577.33191	-601.33600	267.40955	582.00519	-633.58734	300.98767	559.24316	261.59030	439.80206	558.36743	234.34338	
1757	17.560	-20.89467	-0.90014	-529.45129	446.44009	-1.80168	-623.43890	145.16487	106.88798	106.22065	527.50330	19.87247	40.22857	151.22475	742.90912	-764.96307	119.80842	576.94263	-600.26874	270.83365	581.48456	-632.79767	304.44101	558.85986	262.51953	443.74817	557.80865	234.99596	
1758	17.570	-19.93181	-0.91857	-529.43268	448.42929	-1.05651	-622.11749	153.74983	95.29079	104.28072	528.61932	19.53551	40.20635	152.14081	742.53589	-764.48499	122.29720	576.52466	-599.02600	273.13763	581.04578	-631.78711	307.90564	557.79803	263.29169	446.76242	556.96967	235.72552	
1759	17.580	-18.89217	-0.96440	-529.46234	448.24908	-1.85614	-623.19739	161.59087	83.26983	103.19097	529.82678	19.55980	40.41222	152.85440	742.29004	-764.17664	126.24374	575.54486	-598.03345	276.51584	580.64978	-630.72961	311.14679	556.97162	264.55600	450.05609	556.26581	237.06554	
1760	17.590	-17.70885	-0.87185	-529.46936	450.98459	-0.49035	-621.24438	169.52597	71.97192	102.30774	530.63599	19.37887	40.41714	153.76578	742.22778	-763.84790	128.51830	575.55695	-596.91998	279.48370	580.47760	-629.55176	314.44778	556.11646	265.47998	453.41623	555.33582	237.73967	
1761	17.600	-16.47247	-0.64034	-529.47192	451.57077	-0.44394	-621.10034	176.13347	61.62997	101.89327	531.50360	19.32726	40.64742	154.78262	742.23608	-763.57166	131.41649	575.52008	-595.80566	282.25778	580.18085	-628.41956	317.79697	555.50140	266.80750	456.68866	555.00055	239.03220	
1762	17.610	-15.67704	-0.22626	-529.47845	451.20035	-0.98824	-622.05383	180.81958	51.83582	101.62268	532.46552	19.28633	40.88765	155.74477	742.25140	-763.48181	134.30867	575.26257	-594.30780	285.27823	579.98804	-627.12659	321.16577	555.20630	267.87311	459.96359	554.74414	240.30510	
1763	17.620	-15.02582	0.04345	-529.41577	453.10007	-0.76885	-621.09650	183.84270	42.01661	101.05195	533.35205	19.22465	40.82082	156.68622	742.00403	-763.26141	136.86778	574.86743	-592.75787	287.90900	579.59784	-625.66718	324.53394	554.69324	269.31073	463.35431	553.78290	241.15445	
1764	17.630	-14.84868	0.04106	-528.73627	453.51050	-1.24256	-621.76361	187.90649	31.26571	100.48025	534.39587	19.03219	41.00081	157.44884	741.62964	-763.33582	139.61638	574.20624	-590.95581	290.82578	578.88696	-624.16235	328.07361	553.98212	270.80569	467.54385	553.39478	243.18097	
1765	17.640	-13.14803	-0.41706	-528.96777	454.82599	-0.96200	-621.32867	189.50327	23.45607	98.97459	535.44312	18.98516	41.11045	158.49216	741.16577	-763.49469	142.57639	573.66595	-589.15393	292.86111	578.45178	-622.54218	331.74213	553.57703	272.49451	470.26736	552.76190	244.54895	
1766	17.650	-12.28157	-0.18384	-528.80048	455.81586	-0.90035	-620.82837	189.66156	22.29439	98.76890	536.11365	18.88545	41.14128	159.56555	741.02448	-763.52039	145.25661	573.46576	-587.43170	295.99820	577.74707	-620.98651	335.33481	554.11603	274.11749	474.72833	552.87842	245.87260	
1767	17.660	-11.33709	1.15424	-528.22717	456.23962	-2.08441	-621.10187	188.97850	24.15293	101.73336	536.94727	19.08964	41.95980	160.37936	740.99963	-763.53070	148.02594	572.90564	-585.53949	298.82022	576.68347	-619.24573	339.82388	555.60834	275.66922	478.55804	554.00488	247.72983	
